<svg width="130" height="51" viewBox="0 0 130 51" fill="none" xmlns="http://www.w3.org/2000/svg">
<path d="M2.248 46C1.77867 46 1.37333 45.8293 1.032 45.488C0.690667 45.1467 0.52 44.7413 0.52 44.272V2.928C0.52 2.45867 0.690667 2.05333 1.032 1.712C1.37333 1.37066 1.77867 1.2 2.248 1.2H34.504C34.9733 1.2 35.3787 1.37066 35.72 1.712C36.0613 2.05333 36.232 2.45867 36.232 2.928V12.656C36.232 13.1253 36.0613 13.5307 35.72 13.872C35.3787 14.2133 34.9733 14.384 34.504 14.384H16.2V19.12H33.224C33.6933 19.12 34.0987 19.2907 34.44 19.632C34.7813 19.9733 34.952 20.3787 34.952 20.848V30.512C34.952 30.9813 34.7813 31.3867 34.44 31.728C34.0987 32.0693 33.6933 32.24 33.224 32.24H16.2V44.272C16.2 44.7413 16.0293 45.1467 15.688 45.488C15.3467 45.8293 14.9413 46 14.472 46H2.248ZM37.4705 46C37.0865 46 36.7452 45.872 36.4465 45.616C36.1905 45.3173 36.0625 44.976 36.0625 44.592C36.0625 44.4213 36.0838 44.272 36.1265 44.144L50.3985 3.312C50.5265 2.84266 50.8252 2.37333 51.2945 1.904C51.7638 1.43466 52.4252 1.2 53.2785 1.2H67.1665C68.0198 1.2 68.6812 1.43466 69.1505 1.904C69.6198 2.37333 69.9185 2.84266 70.0465 3.312L84.3185 44.144C84.3612 44.272 84.3825 44.4213 84.3825 44.592C84.3825 44.976 84.2332 45.3173 83.9345 45.616C83.6785 45.872 83.3585 46 82.9745 46H71.1345C70.3238 46 69.7265 45.8293 69.3425 45.488C69.0012 45.104 68.7665 44.7413 68.6385 44.4L67.1025 40.176H53.3425L51.8065 44.4C51.6785 44.7413 51.4438 45.104 51.1025 45.488C50.7612 45.8293 50.1638 46 49.3105 46H37.4705ZM56.6065 27.696H63.8385L60.1905 15.792L56.6065 27.696ZM115.185 50.16C114.374 50.16 113.777 49.968 113.393 49.584C113.009 49.2427 112.71 48.944 112.497 48.688L110.705 46.448C109.553 46.576 108.315 46.64 106.993 46.64C102.811 46.64 99.1418 46 95.9845 44.72C92.8698 43.44 90.3952 41.52 88.5605 38.96C86.7685 36.3573 85.7872 33.1573 85.6165 29.36C85.5738 27.6107 85.5525 25.7547 85.5525 23.792C85.5525 21.8293 85.5738 19.9307 85.6165 18.096C85.7872 14.3413 86.7685 11.1627 88.5605 8.56C90.3525 5.95733 92.8272 3.97333 95.9845 2.608C99.1418 1.24266 102.811 0.559998 106.993 0.559998C111.174 0.559998 114.843 1.24266 118.001 2.608C121.158 3.97333 123.633 5.95733 125.425 8.56C127.259 11.1627 128.241 14.3413 128.369 18.096C128.454 19.9307 128.497 21.8293 128.497 23.792C128.497 25.7547 128.454 27.6107 128.369 29.36C128.113 34.1813 126.577 38.0427 123.761 40.944L128.817 48.176C128.859 48.2187 128.902 48.304 128.945 48.432C128.987 48.56 129.009 48.6667 129.009 48.752C129.094 49.136 128.987 49.456 128.689 49.712C128.433 50.0107 128.113 50.16 127.729 50.16H115.185ZM106.993 34.16C108.401 34.16 109.531 33.7547 110.385 32.944C111.238 32.0907 111.686 30.768 111.729 28.976C111.814 27.1413 111.857 25.328 111.857 23.536C111.857 21.744 111.814 19.9733 111.729 18.224C111.686 17.0293 111.451 16.048 111.025 15.28C110.641 14.512 110.107 13.9573 109.425 13.616C108.742 13.232 107.931 13.04 106.993 13.04C106.097 13.04 105.286 13.232 104.561 13.616C103.878 13.9573 103.323 14.512 102.897 15.28C102.513 16.048 102.299 17.0293 102.257 18.224C102.214 19.9733 102.193 21.744 102.193 23.536C102.193 25.328 102.214 27.1413 102.257 28.976C102.342 30.768 102.79 32.0907 103.601 32.944C104.454 33.7547 105.585 34.16 106.993 34.16Z" fill="#8AE18E" fill-opacity="0.92"/>
</svg>
