<svg width="898" height="98" viewBox="0 0 898 98" fill="none" xmlns="http://www.w3.org/2000/svg">
<circle cx="49" cy="49" r="46.5" fill="#69B36C" stroke="#CCCCCC" stroke-width="5"/>
<circle cx="249" cy="49" r="46.5" fill="#69B36C" stroke="#CCCCCC" stroke-width="5"/>
<circle cx="449" cy="49" r="46.5" fill="#69B36C" stroke="#CCCCCC" stroke-width="5"/>
<circle cx="649" cy="49" r="46.5" fill="#69B36C" stroke="#CCCCCC" stroke-width="5"/>
<circle cx="849" cy="49" r="46.5" fill="#69B36C" stroke="#CCCCCC" stroke-width="5"/>
<path fill-rule="evenodd" clip-rule="evenodd" d="M33 49.0893C33 57.044 38.7773 63.6587 46.3333 65V53.444H42.3333V49H46.3333V45.444C46.3333 41.444 48.9107 39.2227 52.556 39.2227C53.7107 39.2227 54.956 39.4 56.1107 39.5773V43.6667H54.0667C52.1107 43.6667 51.6667 44.644 51.6667 45.8893V49H55.9333L55.2227 53.444H51.6667V65C59.2227 63.6587 65 57.0453 65 49.0893C65 40.24 57.8 33 49 33C40.2 33 33 40.24 33 49.0893Z" fill="#0E1A0D" fill-opacity="0.84"/>
<path d="M271.037 38.0208C270.776 37.0519 270.269 36.1746 269.569 35.4824C268.849 34.7688 267.966 34.2584 267.005 33.9993C263.406 33.0099 248.987 33.0099 248.987 33.0099C242.975 32.9386 236.966 33.2523 230.992 33.9493C230.03 34.2276 229.149 34.7494 228.427 35.4684C227.718 36.1799 227.205 37.0574 226.936 38.0188C226.292 41.64 225.979 45.317 226.001 49C225.978 52.6797 226.291 56.3554 226.936 59.9812C227.199 60.9386 227.711 61.812 228.422 62.5176C229.133 63.2232 230.018 63.7328 230.992 64.0027C234.638 64.9901 248.987 64.9901 248.987 64.9901C255.005 65.0615 261.023 64.7478 267.005 64.0506C267.966 63.7915 268.849 63.2811 269.569 62.5676C270.278 61.862 270.782 60.9845 271.035 60.0291C271.696 56.4093 272.018 52.7309 271.995 49.046C272.045 45.3455 271.724 41.6497 271.037 38.0188V38.0208ZM244.403 55.8437V42.1582L256.399 49.002L244.403 55.8437Z" fill="#0E1A0D" fill-opacity="0.84"/>
<path fill-rule="evenodd" clip-rule="evenodd" d="M842.404 33.096C844.11 33.0175 844.654 33 849 33C853.346 33 853.89 33.0189 855.595 33.096C857.3 33.1731 858.463 33.4451 859.481 33.8393C860.548 34.2422 861.515 34.872 862.315 35.6865C863.129 36.4851 863.758 37.4509 864.159 38.5185C864.555 39.5367 864.825 40.7004 864.904 42.4022C864.983 44.1113 865 44.6553 865 49C865 53.3462 864.981 53.8902 864.904 55.5964C864.827 57.2982 864.555 58.4618 864.159 59.48C863.758 60.5478 863.128 61.5152 862.315 62.3149C861.515 63.1295 860.548 63.7578 859.481 64.1593C858.463 64.5549 857.3 64.8255 855.598 64.904C853.89 64.9825 853.346 65 849 65C844.654 65 844.11 64.9811 842.404 64.904C840.702 64.8269 839.538 64.5549 838.52 64.1593C837.452 63.7578 836.485 63.1284 835.685 62.3149C834.871 61.5159 834.241 60.5489 833.839 59.4815C833.445 58.4633 833.175 57.2996 833.096 55.5978C833.017 53.8887 833 53.3447 833 49C833 44.6538 833.019 44.1098 833.096 42.4051C833.173 40.7004 833.445 39.5367 833.839 38.5185C834.242 37.451 834.872 36.4841 835.687 35.6851C836.485 34.8713 837.452 34.2414 838.519 33.8393C839.537 33.4451 840.7 33.1745 842.402 33.096H842.404ZM855.465 35.976C853.778 35.8989 853.272 35.8829 849 35.8829C844.728 35.8829 844.222 35.8989 842.535 35.976C840.974 36.0473 840.127 36.3076 839.563 36.5273C838.817 36.8182 838.283 37.1629 837.723 37.7229C837.192 38.2393 836.784 38.868 836.527 39.5629C836.308 40.1273 836.047 40.9738 835.976 42.5345C835.899 44.2218 835.883 44.728 835.883 49C835.883 53.272 835.899 53.7782 835.976 55.4655C836.047 57.0262 836.308 57.8727 836.527 58.4371C836.783 59.1309 837.192 59.7607 837.723 60.2771C838.239 60.808 838.869 61.2167 839.563 61.4727C840.127 61.6924 840.974 61.9527 842.535 62.024C844.222 62.1011 844.727 62.1171 849 62.1171C853.273 62.1171 853.778 62.1011 855.465 62.024C857.026 61.9527 857.873 61.6924 858.437 61.4727C859.183 61.1818 859.717 60.8371 860.277 60.2771C860.808 59.7607 861.217 59.1309 861.473 58.4371C861.692 57.8727 861.953 57.0262 862.024 55.4655C862.101 53.7782 862.117 53.272 862.117 49C862.117 44.728 862.101 44.2218 862.024 42.5345C861.953 40.9738 861.692 40.1273 861.473 39.5629C861.182 38.8167 860.837 38.2829 860.277 37.7229C859.761 37.1921 859.132 36.7836 858.437 36.5273C857.873 36.3076 857.026 36.0473 855.465 35.976ZM846.956 53.9324C848.098 54.4075 849.369 54.4716 850.552 54.1138C851.735 53.756 852.758 52.9984 853.445 51.9705C854.131 50.9426 854.44 49.7082 854.318 48.478C854.196 47.2478 853.65 46.0981 852.775 45.2255C852.216 44.6676 851.541 44.2405 850.798 43.9748C850.055 43.7091 849.262 43.6114 848.477 43.6889C847.692 43.7664 846.933 44.017 846.256 44.4227C845.58 44.8285 845.001 45.3793 844.563 46.0354C844.124 46.6916 843.837 47.4368 843.721 48.2174C843.605 48.998 843.663 49.7946 843.892 50.5498C844.121 51.3051 844.515 52.0002 845.045 52.5851C845.574 53.1699 846.227 53.6301 846.956 53.9324ZM843.185 43.1847C843.948 42.4211 844.855 41.8153 845.853 41.402C846.851 40.9887 847.92 40.776 849 40.776C850.08 40.776 851.149 40.9887 852.147 41.402C853.145 41.8153 854.052 42.4211 854.815 43.1847C855.579 43.9484 856.185 44.855 856.598 45.8528C857.011 46.8506 857.224 47.92 857.224 49C857.224 50.08 857.011 51.1494 856.598 52.1472C856.185 53.145 855.579 54.0516 854.815 54.8153C853.273 56.3576 851.181 57.224 849 57.224C846.819 57.224 844.727 56.3576 843.185 54.8153C841.642 53.273 840.776 51.1812 840.776 49C840.776 46.8188 841.642 44.727 843.185 43.1847ZM859.048 42.0007C859.237 41.8222 859.389 41.6075 859.494 41.3694C859.598 41.1313 859.654 40.8746 859.658 40.6144C859.662 40.3543 859.613 40.0961 859.516 39.855C859.418 39.6139 859.273 39.3949 859.089 39.211C858.905 39.027 858.686 38.8818 858.445 38.784C858.204 38.6862 857.945 38.6378 857.685 38.6416C857.425 38.6454 857.168 38.7013 856.93 38.8061C856.692 38.9109 856.477 39.0624 856.299 39.2516C855.952 39.6197 855.762 40.1085 855.769 40.6144C855.776 41.1203 855.981 41.6035 856.338 41.9612C856.696 42.319 857.179 42.5232 857.685 42.5306C858.191 42.538 858.68 42.3479 859.048 42.0007Z" fill="#0E1A0D" fill-opacity="0.84"/>
<path d="M669 36.7958C667.566 37.4372 666.025 37.8706 664.405 38.0665C666.077 37.0572 667.327 35.4686 667.923 33.5973C666.353 34.5386 664.634 35.2012 662.842 35.5562C661.637 34.2575 660.041 33.3967 658.302 33.1075C656.562 32.8182 654.777 33.1167 653.222 33.9566C651.668 34.7964 650.432 36.1307 649.706 37.7522C648.98 39.3738 648.805 41.1918 649.208 42.9241C646.026 42.7629 642.914 41.9282 640.073 40.4744C637.232 39.0205 634.725 36.9798 632.716 34.4849C632.028 35.6811 631.633 37.068 631.633 38.545C631.633 39.8747 631.957 41.184 632.578 42.3568C633.199 43.5295 634.097 44.5295 635.192 45.268C633.922 45.2272 632.679 44.8806 631.568 44.2573V44.3613C631.568 46.2262 632.207 48.0337 633.377 49.4772C634.547 50.9206 636.176 51.9111 637.987 52.2804C636.808 52.6024 635.572 52.6498 634.373 52.4191C634.884 54.0238 635.879 55.427 637.22 56.4323C638.56 57.4376 640.178 57.9948 641.848 58.0256C639.014 60.2714 635.513 61.4896 631.91 61.4842C631.272 61.4844 630.634 61.4468 630 61.3715C633.658 63.7451 637.915 65.0049 642.264 65C656.984 65 665.031 52.6948 665.031 42.0226C665.031 41.6759 665.022 41.3257 665.007 40.979C666.572 39.8365 667.923 38.4217 668.997 36.801L669 36.7958Z" fill="#0E1A0D" fill-opacity="0.84"/>
<path d="M450.778 65H443.667V43.6667H450.778V47.2222C451.526 46.2698 452.476 45.4949 453.56 44.953C454.643 44.4111 455.833 44.1157 457.044 44.088C459.162 44.0998 461.189 44.951 462.681 46.455C464.172 47.959 465.006 49.9931 465 52.1111V65H457.889V53C457.751 52.0392 457.271 51.1605 456.537 50.5255C455.803 49.8905 454.865 49.5419 453.894 49.544C453.46 49.5577 453.033 49.6591 452.638 49.8419C452.244 50.0248 451.891 50.2855 451.6 50.6082C451.309 50.931 451.086 51.3092 450.945 51.7202C450.803 52.1312 450.747 52.5665 450.778 53V65ZM440.111 65H433V43.6667H440.111V65ZM436.556 40.1111C435.613 40.1111 434.708 39.7365 434.041 39.0697C433.375 38.4029 433 37.4985 433 36.5556C433 35.6126 433.375 34.7082 434.041 34.0414C434.708 33.3746 435.613 33 436.556 33C437.499 33 438.403 33.3746 439.07 34.0414C439.737 34.7082 440.111 35.6126 440.111 36.5556C440.111 37.4985 439.737 38.4029 439.07 39.0697C438.403 39.7365 437.499 40.1111 436.556 40.1111Z" fill="#0E1A0D" fill-opacity="0.84"/>
</svg>
